<svg width="48" height="48" viewBox="0 0 48 48" fill="none" xmlns="http://www.w3.org/2000/svg">
  <path d="M38.86 25.95C38.94 25.32 39 24.67 39 24C39 23.33 38.94 22.68 38.86 22.05L43.08 18.81C43.46 18.51 43.56 17.95 43.32 17.51L39.32 10.49C39.08 10.04 38.52 9.89 38.07 10.04L33.12 11.97C32.07 11.17 30.93 10.51 29.7 10.02L28.89 4.8C28.82 4.31 28.41 4 27.92 4H19.92C19.43 4 19.02 4.31 18.95 4.8L18.14 10.02C16.91 10.51 15.77 11.18 14.72 11.97L9.77 10.04C9.31 9.88 8.76 10.04 8.52 10.49L4.52 17.51C4.27 17.96 4.37 18.51 4.76 18.81L8.98 22.05C8.9 22.68 8.84 23.34 8.84 24C8.84 24.66 8.9 25.32 8.98 25.95L4.76 29.19C4.38 29.49 4.28 30.05 4.52 30.49L8.52 37.51C8.76 37.96 9.32 38.11 9.77 37.96L14.72 36.03C15.77 36.83 16.91 37.49 18.14 37.98L18.95 43.2C19.02 43.69 19.43 44 19.92 44H27.92C28.41 44 28.82 43.69 28.89 43.2L29.7 37.98C30.93 37.49 32.07 36.82 33.12 36.03L38.07 37.96C38.53 38.12 39.08 37.96 39.32 37.51L43.32 30.49C43.56 30.04 43.46 29.49 43.08 29.19L38.86 25.95ZM23.92 31C20.05 31 16.92 27.87 16.92 24C16.92 20.13 20.05 17 23.92 17C27.79 17 30.92 20.13 30.92 24C30.92 27.87 27.79 31 23.92 31Z" fill="#333333"/>
</svg>